<?xml version="1.0"?>
<svg xmlns="http://www.w3.org/2000/svg" viewBox="0 0 512 512" width="512" height="512"><g id="Manicure_Pedicure" data-name="Manicure Pedicure"><g id="Outline"><circle cx="8" cy="88.29" r="8"/><path d="M192,288V80c0-42.182-24.555-75.406-25.6-76.8a8,8,0,0,0-12.8,0C152.555,4.594,128,37.818,128,80V264a8,8,0,0,0,16,0V243.314l32-32V288H128a7.989,7.989,0,0,0-8,8V472a40,40,0,0,0,80,0V375.72a8,8,0,0,0-16-.02V472a24,24,0,0,1-48,0V304h48v7.72a8,8,0,0,0,16,0V296a7.989,7.989,0,0,0-8-8Zm-16-99.314-32,32V195.314l32-32Zm0-48-32,32V147.314l32-32Zm0-48-32,32V80c0-23.891,9.392-45.019,16.014-56.945C166.633,34.948,176,56.015,176,80Z"/><circle cx="192" cy="343.71" r="8"/><path d="M40,0A40.015,40.015,0,0,0,0,40V56.29a8,8,0,0,0,16,0V40a24,24,0,0,1,48,0v76.686L34.343,146.343a8,8,0,0,0,11.314,11.314L64,139.314v57.372L34.343,226.343a8,8,0,0,0,11.314,11.314L64,219.314v57.372L34.343,306.343a8,8,0,0,0,11.314,11.314L64,299.314V472a24,24,0,0,1-48,0V379.314l29.657-29.657a8,8,0,0,0-11.314-11.314L16,356.686V299.314l29.657-29.657a8,8,0,0,0-11.314-11.314L16,276.686V219.314l29.657-29.657a8,8,0,0,0-11.314-11.314L16,196.686v-76.4a8,8,0,0,0-16,0V472a40.015,40.015,0,0,0,40,40,40.016,40.016,0,0,0,40-40V40A40.016,40.016,0,0,0,40,0Z"/><circle cx="280" cy="184" r="8"/><path d="M248,0a8,8,0,0,0-8,8V72a8,8,0,0,0,8,8h8v32h-8a7.989,7.989,0,0,0-8,8V392a7.989,7.989,0,0,0,8,8h8v33.376A24.039,24.039,0,0,0,240,456v32a24,24,0,0,0,48,0V456a24.039,24.039,0,0,0-16-22.624V400h8a7.989,7.989,0,0,0,8-8V216a8,8,0,0,0-16-.02V384H256V128h16v24a8,8,0,0,0,16,0V120a7.989,7.989,0,0,0-8-8h-8V80h8a8,8,0,0,0,8-8V40A40.045,40.045,0,0,0,248,0Zm16,448a8.009,8.009,0,0,1,8,8v32a8,8,0,0,1-16,0V456A8.009,8.009,0,0,1,264,448Zm8-384H256V17.371A24.041,24.041,0,0,1,272,40Z"/><path d="M355.689,143.85a7.754,7.754,0,0,0,2.731.49,8.034,8.034,0,0,0,7.519-5.27,8,8,0,0,0-4.779-10.25,8,8,0,1,0-5.471,15.03Z"/><path d="M511.52,173.27,481.54,90.83A8.111,8.111,0,0,0,480,88.24,8,8,0,0,0,471.99,80a7.954,7.954,0,0,0-4.43,1.34l-24,16a8.026,8.026,0,0,0-3.15,9.19l23.2,69.6L424,308.16,384.39,176.13l23.2-69.6a8.028,8.028,0,0,0-3.151-9.19l-24-16a8.056,8.056,0,0,0-6.929-.94,7.934,7.934,0,0,0-5.031,4.87l-6.639,18.26a8.006,8.006,0,0,0,4.78,10.25A7.981,7.981,0,0,0,376.88,109l3.16-8.69,10.439,6.96-22.069,66.2a8.042,8.042,0,0,0-.07,4.83L416.3,338.168c.007.024.015.049.022.074l.018.058c.005.018.014.033.02.051.064.208.13.415.212.62l14,35a8,8,0,0,0,14.856-5.942L432.464,335.62l47.2-157.32a8.048,8.048,0,0,0-.07-4.83l-22.07-66.2,10.44-6.96,27.76,76.32-47.56,237.8A8.2,8.2,0,0,0,448,416v56a24,24,0,0,1-48,0V416a6.918,6.918,0,0,0-.16-1.57l-47.561-237.8,2.731-7.49a8,8,0,0,0-15.04-5.47l-3.491,9.6a7.873,7.873,0,0,0-.33,4.3L384,416.79V472a40,40,0,0,0,80,0V416.8l47.84-239.23A7.792,7.792,0,0,0,511.52,173.27Z"/><circle cx="424" cy="456" r="8"/></g></g></svg>
