<?xml version="1.0" encoding="utf-8"?>
<!-- Generator: Adobe Illustrator 24.1.2, SVG Export Plug-In . SVG Version: 6.00 Build 0)  -->
<svg version="1.1" id="Capa_1" xmlns="http://www.w3.org/2000/svg" xmlns:xlink="http://www.w3.org/1999/xlink" x="0px" y="0px"
	 viewBox="0 0 512 512" style="enable-background:new 0 0 512 512;" xml:space="preserve">
<style type="text/css">
	.st0{fill:#F48380;}
</style>
<g id="Beauty_Relax_Spa_Candle_Stones">
	<g id="Outline">
		<path class="st0" d="M256,400h-56c-4.4,0-8,3.6-8,8s3.6,8,8,8h56c4.4,0,8-3.6,8-8S260.4,400,256,400z"/>
		<path class="st0" d="M123,231.9c5.8-5.1,13.3-7.9,21-7.9h112c14.6,0,27.3,9.9,31,24h-95c-4.4,0-8,3.6-8,8s3.6,8,8,8h95
			c-3.7,14.1-16.4,24-31,24h-24c-4.4,0-8,3.6-8,8s3.6,8,8,8h40c23.8,0.1,44,17.6,47.5,41.1c0.6,4.4,4.7,7.4,9.1,6.8s7.4-4.7,6.8-9.1
			c-3.7-25-21.7-45.5-45.9-52.4c0.2-0.2,0.4-0.3,0.5-0.5c18.7-18.7,18.7-49.1,0-67.9c-5.5-5.5-12.3-9.6-19.7-11.9
			c14.5-16.7,12.7-41.9-4-56.4c-4.5-3.9-9.7-6.7-15.4-8.3c9.7-14.8,5.5-34.6-9.2-44.2c-1.3-0.9-2.7-1.7-4.2-2.3
			c6-11.8,1.4-26.2-10.4-32.3c-3.4-1.7-7.2-2.7-11-2.6h-32c-13.2,0-24,10.7-24,24c0,3.8,0.9,7.6,2.6,11c-16,7.4-23.1,26.3-15.7,42.4
			c0.7,1.5,1.4,2.9,2.3,4.2c-21.3,5.9-33.7,28-27.8,49.2c1.6,5.7,4.4,11,8.3,15.5c-6.4,2-12.3,5.2-17.3,9.6c-3.3,2.9-3.7,8-0.8,11.3
			C114.6,234.4,119.7,234.8,123,231.9L123,231.9z M184,80h32c4.4,0,8,3.6,8,8s-3.6,8-8,8h-32c-4.4,0-8-3.6-8-8S179.6,80,184,80z
			 M176,112h48c8.8,0,16,7.2,16,16s-7.2,16-16,16h-48c-8.8,0-16-7.2-16-16S167.2,112,176,112z M160,160h80c10.2,0,19.2,6.4,22.6,16
			H184c-4.4,0-8,3.6-8,8s3.6,8,8,8h78.6c-3.4,9.6-12.5,16-22.6,16h-80c-13.3,0-24-10.7-24-24S146.7,160,160,160z"/>
		<path class="st0" d="M207.8,311.9c0.9-4-1.4-8.1-5.3-9.4c-1.4-0.4-30.8-9.9-57.5-5.2c-9.9-25.6-34.5-46.4-35.8-47.4
			c-3-2.5-7.3-2.5-10.2,0c-1.2,1-26.6,22.4-36.2,48.4C36,293.8,7,303.1,5.5,303.6c-3.9,1.3-6.3,5.4-5.3,9.4
			c0.4,1.9,10.6,44.1,37.1,62.2c-13.8,26.7-8.1,64.2-7.9,66c0.6,3.9,4,6.8,7.9,6.8c0.2,0,0.3,0,0.5,0c1.9-0.1,42.8-3,65.7-24.2
			c22.9,21.2,63.8,24.1,65.7,24.2c0.2,0,0.3,0,0.5,0c3.9,0,7.3-2.9,7.9-6.8c0.3-1.7,5.9-39.6-8-66.3
			C197,357.2,207.3,313.8,207.8,311.9z M44.5,431.1c-1.1-15-0.3-40.7,11.3-55.1C64.4,365.4,77,355,91,360.7
			c-3.9,5.3-6.4,11.5-7.1,18c-1.1,10.5,2.1,21.4,9.5,32.7C80.1,424.4,56.5,429.4,44.5,431.1z M76.6,343.7
			c-10.6,1.8-20.7,8.1-30.1,18.5c-15.7-10.5-24.8-33.6-28.7-45.4c14.7-3.5,40.5-6.9,56.6,2.1c10.2,5.7,21.1,14.6,21.5,26.6
			C89.8,343.2,83.1,342.6,76.6,343.7z M82.3,304.9c-1.4-0.8-2.8-1.5-4.3-2.1c5.9-15.1,18.8-29,26-36c11.2,10.8,29,31.9,29,50.5
			c0,19.5-7.3,31.1-21.3,34.1c-0.1-0.1-0.1-0.1-0.2-0.2C113.3,339,110,320.4,82.3,304.9L82.3,304.9z M162.6,431.2
			c-14.9-2.2-40.2-8.6-51.7-22.9c-8.1-10.1-12-19.7-11.1-27.8c0.5-4,2.1-7.8,4.6-10.9c5.5,7.9,13.7,13.4,23.1,15.4
			c2.8,0.6,5.6,0.9,8.5,0.9c6.6-0.1,13.1-1.4,19.3-3.8C163.7,397.6,163.4,419.7,162.6,431.2L162.6,431.2z M159,362.6
			c-11.5,6.4-26.3,11.3-37.1,2.4c5.3-2,10.1-5.2,14-9.3c8.7-9,13.1-21.9,13.1-38.5c0-1.5-0.1-3-0.2-4.5c15.1-2.4,31.9,0.6,41.3,2.9
			C186,328.2,176.2,353,159,362.6L159,362.6z"/>
		<path class="st0" d="M392,192c4.4,0,8-3.6,8-8v-56c0-4.4-3.6-8-8-8s-8,3.6-8,8v56C384,188.4,387.6,192,392,192z"/>
		<path class="st0" d="M392,248c4.4,0,8-3.6,8-8v-24c0-4.4-3.6-8-8-8s-8,3.6-8,8v24C384,244.4,387.6,248,392,248z"/>
		<path class="st0" d="M360,264c4.4,0,8-3.6,8-8v-64c0-4.4-3.6-8-8-8s-8,3.6-8,8v64C352,260.4,355.6,264,360,264z"/>
		<path class="st0" d="M424,264c4.4,0,8-3.6,8-8v-64c0-4.4-3.6-8-8-8s-8,3.6-8,8v64C416,260.4,419.6,264,424,264z"/>
		<circle class="st0" cx="360" cy="160" r="8"/>
		<circle class="st0" cx="160" cy="256" r="8"/>
		<circle class="st0" cx="424" cy="160" r="8"/>
		<circle class="st0" cx="424" cy="128" r="8"/>
		<circle class="st0" cx="360" cy="128" r="8"/>
		<circle class="st0" cx="392" cy="96" r="8"/>
		<path class="st0" d="M504,368H400v-17c13.8-3.4,24-15.5,24-29.9c0-13.9-19.4-44.5-25.3-53.5c-2.4-3.7-7.4-4.7-11.1-2.3
			c-0.9,0.6-1.7,1.4-2.3,2.3c-5.9,9-25.3,39.6-25.3,53.5c0,14.4,10.2,26.4,24,29.9v17H280c-4.4,0-8,3.6-8,8
			c0,11.5,2.8,22.9,8.1,33.1c0.3,2.1,1.4,3.9,3,5.2c13.2,21,36.2,33.7,60.9,33.7h96c24.8,0,47.8-12.7,60.9-33.7
			c1.6-1.3,2.7-3.2,3-5.2c5.3-10.2,8.1-21.6,8.1-33.1C512,371.6,508.4,368,504,368z M376,321.1c0-5,7.5-19.9,16-34.1
			c8.5,14.2,16,29.1,16,34.1c0,8.2-7.2,14.9-16,14.9S376,329.3,376,321.1z M490.6,400H360c-4.4,0-8,3.6-8,8s3.6,8,8,8h119.1
			c-10.4,10.3-24.5,16-39.1,16h-96c-14.6,0-28.7-5.7-39.1-16H328c4.4,0,8-3.6,8-8s-3.6-8-8-8h-34.6c-2.4-5.1-4.1-10.5-4.9-16h206.9
			C494.6,389.5,493,394.9,490.6,400z"/>
	</g>
</g>
</svg>
